# Blender v2.90.1 OBJ File: ''
# www.blender.org
mtllib diamond.mtl
o Cube_Cube.002
v 0.000000 -1.414214 0.100000
v -0.762243 0.000000 0.100000
v 0.762243 0.000000 0.100000
v 0.000000 1.414214 0.100000
v 0.000000 0.000000 0.689783
v 0.000000 -1.414214 -0.100000
v -0.762243 0.000000 -0.100000
v 0.762243 0.000000 -0.100000
v 0.000000 1.414214 -0.100000
v 0.000000 0.000000 -0.689783
vt 0.000000 0.000000
vt 0.000000 0.000000
vt 0.000000 0.000000
vt 0.000000 0.000000
vt 0.000000 0.000000
vt 0.000000 0.000000
vt 0.000000 0.000000
vt 0.000000 0.000000
vt 0.000000 0.000000
vt 0.000000 0.000000
vn 0.5812 0.3132 0.7511
vn 0.5812 0.3132 -0.7511
vn -0.5812 -0.3132 0.7511
vn -0.5812 0.3132 0.7511
vn 0.5812 -0.3132 0.7511
vn -0.5812 -0.3132 -0.7511
vn -0.5812 0.3132 -0.7511
vn 0.5812 -0.3132 -0.7511
vn 0.8803 0.4745 0.0000
vn -0.8803 0.4745 0.0000
vn -0.8803 -0.4745 0.0000
vn 0.8803 -0.4745 0.0000
usemtl None
s off
f 4/1/1 5/2/1 3/3/1
f 9/4/2 8/5/2 10/6/2
f 1/7/3 5/2/3 2/8/3
f 5/2/4 4/1/4 2/8/4
f 5/2/5 1/7/5 3/3/5
f 6/9/6 7/10/6 10/6/6
f 10/6/7 7/10/7 9/4/7
f 10/6/8 8/5/8 6/9/8
f 4/1/9 3/3/9 8/5/9 9/4/9
f 2/8/10 4/1/10 9/4/10 7/10/10
f 1/7/11 2/8/11 7/10/11 6/9/11
f 3/3/12 1/7/12 6/9/12 8/5/12
